<svg width="134" height="37" viewBox="0 0 134 37" fill="none" xmlns="http://www.w3.org/2000/svg">
<g clip-path="url(#clip0_2819_35457)">
<path d="M0.246094 5.81376L16.2703 0.605469V36.6608C4.82429 31.853 0.246094 22.6389 0.246094 17.4317V5.81376Z" fill="#0500FF"/>
<path d="M32.2938 5.81376L16.2695 0.605469V36.6608C27.7156 31.853 32.2938 22.6389 32.2938 17.4317V5.81376Z" fill="url(#paint0_linear_2819_35457)"/>
<path d="M60.4375 9.10938H66.7928V12.6692C68.875 9.46991 71.2712 9.10938 74.7789 9.10938V15.4004H73.1814C68.9782 15.4004 66.9659 17.3783 66.9659 21.2964V27.9835H60.4375V9.10938Z" fill="#0500FF"/>
<path d="M95.9841 27.9835H89.4568V26.1841C88.0313 27.8381 86.0889 28.557 83.6939 28.557C79.1456 28.557 76.5742 25.8602 76.5742 20.9004V9.10938H83.1015V19.4283C83.1015 21.7635 84.2474 23.129 86.191 23.129C88.1345 23.129 89.4557 21.7979 89.4557 19.5348V9.10938H95.983V27.9835H95.9841Z" fill="#0500FF"/>
<path d="M97.5781 22.1575H103.692C103.97 23.5231 104.907 24.0978 107.163 24.0978C109.004 24.0978 110.08 23.6673 110.08 22.8764C110.08 22.264 109.559 21.868 108.068 21.5452L103.137 20.4303C99.8378 19.6771 98.1705 17.7713 98.1705 14.714C98.1705 10.686 101.121 8.60156 106.851 8.60156C112.581 8.60156 115.393 10.6327 115.881 14.9846H109.805C109.702 13.8354 108.519 13.1321 106.576 13.1321C105.014 13.1321 104.009 13.6346 104.009 14.3911C104.009 15.0379 104.667 15.5404 105.989 15.8665L111.162 17.1256C114.564 17.951 116.198 19.6782 116.198 22.4815C116.198 26.3652 112.829 28.666 107.103 28.666C101.376 28.666 97.5881 26.1855 97.5881 22.1575H97.5814H97.5781Z" fill="#0500FF"/>
<path d="M133.581 14.9799V9.10938H117.469V14.9833H122.277V27.9835H128.771V14.9799H133.581Z" fill="#0500FF"/>
<path d="M58.6186 14.9799V9.10938H42.5078V14.9833H47.3156V27.9835H53.8107V14.9799H58.6186Z" fill="#0500FF"/>
</g>
<defs>
<linearGradient id="paint0_linear_2819_35457" x1="28.0373" y1="-1.91936" x2="15.9334" y2="36.1683" gradientUnits="userSpaceOnUse">
<stop offset="0.02" stop-color="#0000FF"/>
<stop offset="0.08" stop-color="#0094FF"/>
<stop offset="0.16" stop-color="#48FF91"/>
<stop offset="0.42" stop-color="#0094FF"/>
<stop offset="0.68" stop-color="#0038FF"/>
<stop offset="0.9" stop-color="#0500FF"/>
</linearGradient>
<clipPath id="clip0_2819_35457">
<rect width="133.333" height="36.0553" fill="white" transform="translate(0.246094 0.605469)"/>
</clipPath>
</defs>
</svg>
